# xmcd
#
# Track frame offsets: 
#        150
#        16565
#        31610
#        48482
#        61722
#        74715
#        88052
#        97495
#        110937
#        119715
#        137085
#        147277
#        159550
#        179357
#        190920
#        204882
#        217572
#
# Disc length: 3069 seconds
#
# Revision: 2
# Processed by: cddbd v1.5.2PL0 Copyright (c) Steve Scherf et al.
# Submitted via: ExactAudioCopy v0.95b4
#
DISCID=f50bfb11
DTITLE=Howlin' Wolf - Howlin' Wolf London Sessions
DYEAR=1970
DGENRE=Blues
TTITLE0=Rockin' Daddy
TTITLE1=I Ain't Superstitious
TTITLE2=Sittin' On Top Of The World
TTITLE3=Worried About My Baby
TTITLE4=What A Woman
TTITLE5=Poor Boy
TTITLE6=Built For Comfort
TTITLE7=Who's Been Talking
TTITLE8=Little Red Rooster (Rehearsal)
TTITLE9=Little Red Rooster
TTITLE10=Do The Do
TTITLE11=Highway 49
TTITLE12=Wang-dang-doodle
TTITLE13=Howlin' For My Baby
TTITLE14=Smokestack Lightnin'
TTITLE15=Back Door Man
TTITLE16=Killing Floor
EXTD=
EXTT0=
EXTT1=
EXTT2=
EXTT3=
EXTT4=
EXTT5=
EXTT6=
EXTT7=
EXTT8=
EXTT9=
EXTT10=
EXTT11=
EXTT12=
EXTT13=
EXTT14=
EXTT15=
EXTT16=
PLAYORDER=
